<svg width="16" height="17" viewBox="0 0 16 17" fill="none" xmlns="http://www.w3.org/2000/svg">
<path d="M2.3556 15.7059L8.35518 9.70627L14.3689 15.72C14.7049 16.056 15.2497 16.056 15.5857 15.72C15.9217 15.384 15.9217 14.8392 15.5857 14.5032L9.57199 8.48946L15.5716 2.48988C15.9467 2.11479 15.9467 1.50666 15.5716 1.13157C15.1965 0.756483 14.5884 0.756483 14.2133 1.13157L8.21368 7.13115L2.22825 1.14572C1.89224 0.809708 1.34746 0.809708 1.01144 1.14572C0.675429 1.48173 0.675428 2.02652 1.01144 2.36253L6.99687 8.34796L0.997293 14.3475C0.622206 14.7226 0.622206 15.3308 0.997293 15.7059C1.37238 16.0809 1.98051 16.0809 2.3556 15.7059Z" fill="white" stroke="white" stroke-width="0.2"/>
</svg>
