<svg width="113" height="52" viewBox="0 0 113 52" fill="none" xmlns="http://www.w3.org/2000/svg">
<path d="M48.8971 46.1617V26.1614L105.079 25.8839C106.688 25.876 107.859 27.4075 107.43 28.9581L103.217 44.1674C102.891 45.3458 101.818 46.1617 100.595 46.1617H48.8971Z" fill="#111111" stroke="white" stroke-width="0.147059"/>
<g filter="url(#filter0_d_103_6)">
<path d="M54.4118 11.9706H97.8503C99.5522 11.9706 100.812 13.5534 100.43 15.2119L97.9412 26.0147L54.1912 26.3088L54.4118 11.9706Z" fill="#FD105B"/>
</g>
<g filter="url(#filter1_d_103_6)">
<path d="M1.93133 14.1837C1.11185 9.35874 5.14658 5.09469 10.0094 5.64646L50.9344 10.2901C55.4336 10.8006 58.5523 15.0246 57.7156 19.4747L53.7233 40.7081C53.043 44.3267 50.0434 47.0539 46.3766 47.3878L14.9383 50.2506C11.1138 50.5988 7.66542 47.9452 7.02239 44.1591L1.93133 14.1837Z" fill="#FD105B"/>
</g>
<path d="M111.35 14.6236C111.729 14.6455 112.056 14.3559 112.058 13.9763C112.069 12.4324 111.816 10.8963 111.307 9.43496C110.723 7.75698 109.814 6.21048 108.632 4.88374C107.451 3.557 106.019 2.476 104.42 1.70248C103.027 1.02882 101.53 0.599849 99.9952 0.432575C99.6178 0.391446 99.2925 0.682717 99.2706 1.0617C99.2487 1.44068 99.5386 1.76366 99.9157 1.80696C101.27 1.96247 102.591 2.34501 103.821 2.94006C105.258 3.63499 106.544 4.60614 107.606 5.79808C108.667 6.99001 109.484 8.37938 110.009 9.88685C110.458 11.1777 110.686 12.5334 110.684 13.8969C110.684 14.2765 110.971 14.6017 111.35 14.6236Z" fill="white"/>
<path d="M107.291 14.5747C107.65 14.5578 107.929 14.2527 107.897 13.8947C107.693 11.6288 106.966 9.50037 105.418 7.8099C103.871 6.11925 101.827 4.97265 99.5893 4.52879C99.2367 4.45883 98.9081 4.71029 98.8596 5.06649C98.8112 5.42269 99.0613 5.74846 99.4133 5.82137C101.349 6.22226 103.116 7.22279 104.458 8.68892C105.8 10.1548 106.412 11.9945 106.595 13.956C106.629 14.3139 106.932 14.5916 107.291 14.5747Z" fill="white"/>
<path d="M103.071 14.2659C103.405 14.2575 103.671 13.9797 103.628 13.6493C103.479 12.499 102.988 11.4146 102.211 10.5404C101.435 9.66613 100.417 9.05003 99.2921 8.76561C98.969 8.68389 98.6617 8.91564 98.6139 9.24545C98.5661 9.57527 98.7965 9.87751 99.1172 9.968C99.9601 10.2058 100.722 10.6806 101.309 11.3417C101.896 12.0028 102.277 12.8155 102.414 13.6805C102.465 14.0097 102.738 14.2743 103.071 14.2659Z" fill="white"/>
<path d="M62.0718 31.445L61.5109 34.6176H65.63L65.297 36.5107H61.1779L60.5995 39.8235H65.2444L64.8939 41.7691H57.7774L59.9509 29.5169H67.0498L66.7168 31.445H62.0718ZM78.2368 29.5344L77.8862 31.4625H72.803L72.2421 34.6702H76.1334L75.8003 36.5632H71.8916L70.9801 41.7691H68.5086L70.6821 29.5344H78.2368ZM83.833 29.5344L81.6771 41.7691H79.2056L81.3791 29.5344H83.833ZM92.2522 29.5344C93.5025 29.5344 94.449 29.8207 95.0917 30.3933C95.7344 30.9542 96.0558 31.6904 96.0558 32.6019C96.0558 32.8239 96.0382 33.0518 96.0032 33.2855C95.863 34.0801 95.5007 34.8046 94.9164 35.459C94.3439 36.1017 93.5726 36.5516 92.6027 36.8086L94.6535 41.7691H91.7964L89.9735 37.0014H88.7991L87.9578 41.7691H85.4863L87.6598 29.5344H92.2522ZM93.4791 33.3381C93.5025 33.1277 93.5142 32.9875 93.5142 32.9174C93.5142 32.4733 93.374 32.1286 93.0935 31.8832C92.8131 31.6378 92.3865 31.5151 91.814 31.5151H89.7632L89.1146 35.1785H91.1654C91.8198 35.1785 92.3398 35.0149 92.7254 34.6877C93.1227 34.3605 93.374 33.9106 93.4791 33.3381ZM96.6696 41.7918C96.5985 41.7918 96.5413 41.7713 96.4982 41.7303C96.455 41.6893 96.4335 41.6375 96.4335 41.575C96.4335 41.4887 96.4658 41.4154 96.5305 41.355C96.5974 41.2924 96.675 41.2612 96.7635 41.2612C96.8346 41.2612 96.8907 41.2817 96.9317 41.3226C96.9748 41.3615 96.9964 41.4132 96.9964 41.4779C96.9964 41.5642 96.9641 41.6386 96.8994 41.7012C96.8346 41.7616 96.7581 41.7918 96.6696 41.7918ZM98.1604 39.5109L97.9145 40.9053C97.9059 40.9657 97.9015 41.0077 97.9015 41.0315C97.9015 41.1436 97.935 41.2299 98.0018 41.2903C98.0687 41.3485 98.1636 41.3776 98.2865 41.3776C98.4332 41.3776 98.5529 41.3377 98.6457 41.2579C98.7406 41.176 98.802 41.0584 98.8301 40.9053L99.0759 39.5109H99.5321L99.2862 40.9053C99.2517 41.0994 99.1816 41.2633 99.0759 41.397C98.9703 41.5286 98.8419 41.6278 98.6909 41.6947C98.5421 41.7594 98.3814 41.7918 98.2089 41.7918C97.9803 41.7918 97.7948 41.7324 97.6524 41.6138C97.5122 41.4952 97.4421 41.3248 97.4421 41.1026C97.4421 41.0422 97.4486 40.9765 97.4615 40.9053L97.7074 39.5109H98.1604ZM100.102 41.3873H101.115L101.047 41.7691H99.5071L99.5718 41.4197L100.847 39.8926H99.8403L99.9083 39.5109H101.448L101.384 39.8603L100.102 41.3873Z" fill="white"/>
<path d="M13.4307 23.4683C13.1904 19.9973 15.9554 17.1399 19.4259 16.8926C27.4418 16.3215 32.9202 15.9795 40.813 15.3688C43.8408 15.1346 46.3894 17.6206 46.2175 20.6526C45.9193 25.911 45.6748 30.2121 45.3636 35.0819C45.1674 38.1508 42.5734 40.5082 39.4993 40.4255L28.6029 40.1324L21.6912 39.6177V39.6177C17.4956 39.2886 14.377 35.7089 14.1374 31.5073C13.9617 28.4286 13.6237 26.2571 13.4307 23.4683Z" fill="white"/>
<path d="M37.7557 27.5603C38.4044 27.9916 38.3576 28.9593 37.6702 29.3259L26.1978 35.4445C25.1568 35.9997 23.9186 35.1646 24.0435 33.9913L25.3573 21.6414C25.4624 20.6532 26.5786 20.129 27.4062 20.6793L37.7557 27.5603Z" fill="#FC115B"/>
<path d="M66.5177 15.2323L65.3794 21.7176C65.2206 22.6176 64.8368 23.3191 64.2279 23.8221C63.6191 24.3162 62.8779 24.5632 62.0044 24.5632C61.2279 24.5632 60.6147 24.3691 60.1647 23.9809C59.7147 23.5838 59.4897 23.0279 59.4897 22.3132C59.4897 22.1191 59.5118 21.8985 59.5559 21.6515H61.4221C61.4044 21.7397 61.3956 21.8588 61.3956 22.0088C61.3956 22.6088 61.6868 22.9088 62.2691 22.9088C62.6044 22.9088 62.8779 22.8029 63.0897 22.5912C63.3015 22.3794 63.4427 22.0882 63.5132 21.7176L64.6515 15.2323H66.5177ZM71.3659 24.5632C70.5894 24.5632 69.9012 24.4 69.3012 24.0735C68.71 23.7382 68.2512 23.2794 67.9247 22.6971C67.5983 22.1059 67.435 21.4309 67.435 20.6721C67.435 19.6132 67.6688 18.6603 68.1365 17.8132C68.613 16.9662 69.2659 16.3044 70.0953 15.8279C70.9336 15.3426 71.8733 15.1 72.9144 15.1C73.6997 15.1 74.388 15.2632 74.9791 15.5897C75.5791 15.9162 76.0424 16.375 76.3688 16.9662C76.6953 17.5485 76.8586 18.2147 76.8586 18.9647C76.8586 20.0412 76.6247 21.0029 76.1571 21.85C75.6894 22.6971 75.0365 23.3632 74.1983 23.8485C73.36 24.325 72.4159 24.5632 71.3659 24.5632ZM71.6306 22.8559C72.2924 22.8559 72.8747 22.6882 73.3777 22.3529C73.8894 22.0176 74.2821 21.5676 74.5556 21.0029C74.838 20.4294 74.9791 19.8073 74.9791 19.1368C74.9791 18.4132 74.7762 17.8441 74.3703 17.4294C73.9644 17.0147 73.3953 16.8073 72.663 16.8073C72.01 16.8073 71.4277 16.975 70.9159 17.3103C70.413 17.6456 70.0203 18.0956 69.738 18.6603C69.4644 19.225 69.3277 19.8426 69.3277 20.5132C69.3277 21.2368 69.5262 21.8103 69.9233 22.2338C70.3291 22.6485 70.8983 22.8559 71.6306 22.8559ZM85.3444 24.4706H83.4783L80.4209 18.1309L79.2959 24.4706H77.4297L79.0709 15.2191H80.9239L83.9944 21.5721L85.1194 15.2191H86.9724L85.3444 24.4706ZM89.28 23.0544H92.3241L92.0726 24.4706H87.1623L88.8035 15.2323H90.6565L89.28 23.0544ZM96.7312 15.2323L95.1033 24.4706H93.2371L94.8783 15.2323H96.7312Z" fill="white"/>
<defs>
<filter id="filter0_d_103_6" x="52.7206" y="10.5" width="49.2485" height="17.2794" filterUnits="userSpaceOnUse" color-interpolation-filters="sRGB">
<feFlood flood-opacity="0" result="BackgroundImageFix"/>
<feColorMatrix in="SourceAlpha" type="matrix" values="0 0 0 0 0 0 0 0 0 0 0 0 0 0 0 0 0 0 127 0" result="hardAlpha"/>
<feOffset/>
<feGaussianBlur stdDeviation="0.735294"/>
<feComposite in2="hardAlpha" operator="out"/>
<feColorMatrix type="matrix" values="0 0 0 0 0 0 0 0 0 0 0 0 0 0 0 0 0 0 0.6 0"/>
<feBlend mode="normal" in2="BackgroundImageFix" result="effect1_dropShadow_103_6"/>
<feBlend mode="normal" in="SourceGraphic" in2="effect1_dropShadow_103_6" result="shape"/>
</filter>
<filter id="filter1_d_103_6" x="0.354424" y="4.12762" width="58.9677" height="47.6242" filterUnits="userSpaceOnUse" color-interpolation-filters="sRGB">
<feFlood flood-opacity="0" result="BackgroundImageFix"/>
<feColorMatrix in="SourceAlpha" type="matrix" values="0 0 0 0 0 0 0 0 0 0 0 0 0 0 0 0 0 0 127 0" result="hardAlpha"/>
<feOffset/>
<feGaussianBlur stdDeviation="0.735294"/>
<feComposite in2="hardAlpha" operator="out"/>
<feColorMatrix type="matrix" values="0 0 0 0 0 0 0 0 0 0 0 0 0 0 0 0 0 0 0.6 0"/>
<feBlend mode="normal" in2="BackgroundImageFix" result="effect1_dropShadow_103_6"/>
<feBlend mode="normal" in="SourceGraphic" in2="effect1_dropShadow_103_6" result="shape"/>
</filter>
</defs>
</svg>
